<svg width="350" height="276" viewBox="0 0 350 276" fill="none" xmlns="http://www.w3.org/2000/svg">
<path d="M343.5 0.291626C346.261 0.291626 348.5 2.5302 348.5 5.29162L348.5 50.2917V270.292C348.5 273.053 346.261 275.292 343.5 275.292H53.4999C50.7385 275.292 48.4999 273.053 48.4999 270.292V55.2917C48.4999 52.5303 50.7385 50.2917 53.4999 50.2917L185.897 50.2916C187.528 50.2916 189.057 49.4956 189.993 48.159L222.007 2.42431C222.943 1.08768 224.472 0.291626 226.103 0.291626H343.5Z" fill="white" stroke="black" stroke-opacity="0.5" stroke-width="0.583333"/>
<rect width="265" height="208.345" rx="2.5" transform="matrix(-1 0 0 1 333.499 66.9471)" fill="#F7F7F7" stroke="black" stroke-opacity="0.3" stroke-width="0.5"/>
<rect width="265" height="200" rx="2.5" transform="matrix(-1 0 0 1 328.5 71.9471)" fill="#F7F7F7" stroke="black" stroke-opacity="0.3" stroke-width="0.5"/>
<rect width="265" height="195" rx="2.5" transform="matrix(-1 0 0 1 323.5 76.9473)" fill="#F7F7F7" stroke="black" stroke-opacity="0.3" stroke-width="0.5"/>
<path d="M6.70275 90.2917C3.35862 90.2917 0.957095 93.5111 1.91006 96.7166L9.99988 123.928L49.0162 271.569C49.596 273.763 51.5808 275.292 53.8502 275.292H343.083C346.49 275.292 348.899 271.959 347.83 268.724L301.134 127.36C300.457 125.312 298.543 123.928 296.386 123.928L162.013 123.928C160.721 123.928 159.48 123.428 158.549 122.533L126.452 91.6867C125.52 90.7916 124.279 90.2917 122.987 90.2917H6.70275Z" fill="white" stroke="black" stroke-opacity="0.5" stroke-width="0.583333"/>
</svg>
