<svg width="174" height="230" viewBox="0 0 174 230" fill="none" xmlns="http://www.w3.org/2000/svg">
<path fill-rule="evenodd" clip-rule="evenodd" d="M165.513 204.456C166.252 204.065 166.948 203.599 167.598 203.059L165.513 204.456Z" fill="white"/>
<path d="M152.81 212.963L151.861 213.598M165.513 204.456C166.252 204.065 166.948 203.599 167.598 203.059L165.513 204.456Z" stroke="black" stroke-opacity="0.5" stroke-linecap="round" stroke-linejoin="round"/>
<path fill-rule="evenodd" clip-rule="evenodd" d="M97.3389 85.7459C96.6059 86.1393 95.9167 86.6021 95.2715 87.1345L97.3389 85.7459Z" fill="white" stroke="black" stroke-opacity="0.5" stroke-linecap="round" stroke-linejoin="round"/>
<path d="M159.007 195.233C159.007 199.568 158.53 203.163 157.574 206.019C157.098 207.444 156.502 208.685 155.788 209.742C154.92 211.025 153.928 212.099 152.81 212.963L165.512 204.456L167.598 203.059C168.581 202.244 169.462 201.26 170.241 200.106C172.388 196.932 173.461 192.095 173.461 185.597C173.461 180.885 172.848 176.403 171.622 172.148C170.395 167.892 168.626 163.716 166.315 159.62C164.004 155.524 161.232 151.446 158.001 147.387C154.769 143.329 151.125 139.153 147.069 134.862C144.097 131.738 141.432 128.831 139.073 126.143C136.715 123.455 134.71 120.943 133.059 118.61C131.757 116.769 130.69 115.014 129.858 113.344C127.512 112.032 125.365 111.075 123.417 110.472C121.294 109.815 119.501 109.579 118.039 109.764C116.577 109.948 115.444 110.526 114.643 111.499C113.841 112.471 113.439 113.85 113.439 115.637C113.439 117.587 113.888 119.593 114.784 121.653C115.68 123.714 116.954 125.911 118.605 128.246C120.256 130.579 122.261 133.091 124.619 135.779C126.978 138.467 129.643 141.374 132.615 144.498C136.671 148.789 140.315 152.965 143.547 157.023C146.778 161.082 149.55 165.16 151.861 169.256C154.172 173.352 155.941 177.528 157.168 181.784C158.394 186.039 159.007 190.521 159.007 195.233Z" fill="#F2F2F2" stroke="black" stroke-opacity="0.5" stroke-linecap="round" stroke-linejoin="round"/>
<path fill-rule="evenodd" clip-rule="evenodd" d="M103.181 174.171C105.998 176.955 108.83 179.408 111.679 181.532C113.697 183.037 115.723 184.376 117.757 185.551C120.634 187.212 123.146 188.365 125.292 189.008C127.439 189.652 129.231 189.86 130.67 189.636C132.109 189.41 133.182 188.784 133.889 187.757C134.597 186.731 134.951 185.379 134.951 183.7C134.951 181.425 134.385 179.067 133.252 176.626L133.211 176.537L133.208 176.531L133.204 176.523L133.201 176.515L133.175 176.46C133.06 176.397 132.945 176.333 132.83 176.268C132.709 176.2 132.588 176.131 132.465 176.061C132.381 176.013 132.296 175.964 132.211 175.915C127.305 173.083 122.447 169.29 117.635 164.535C112.824 159.781 108.366 154.242 104.262 147.919L89.8076 157.555C93.9121 163.878 98.3697 169.417 103.181 174.171Z" fill="white" stroke="black" stroke-opacity="0.5" stroke-linecap="round" stroke-linejoin="round"/>
<path fill-rule="evenodd" clip-rule="evenodd" d="M133.175 176.46C133.06 176.397 132.945 176.333 132.83 176.268L132.692 176.19C132.617 176.147 132.541 176.104 132.465 176.061C132.381 176.013 132.296 175.964 132.211 175.915C127.305 173.083 122.447 169.29 117.635 164.535C112.824 159.781 108.366 154.242 104.262 147.919L89.8076 157.555C93.912 163.878 98.3695 169.417 103.181 174.171C105.997 176.954 108.83 179.408 111.679 181.532C113.697 183.037 115.723 184.376 117.757 185.551C120.634 187.212 123.146 188.365 125.292 189.008C127.439 189.652 129.231 189.86 130.67 189.636C132.109 189.41 133.182 188.784 133.889 187.757C134.597 186.731 134.951 185.379 134.951 183.7C134.951 181.425 134.385 179.067 133.252 176.626L133.211 176.537L133.208 176.531L133.204 176.523L133.201 176.515L133.175 176.46Z" fill="white" stroke="black" stroke-opacity="0.5" stroke-linecap="round" stroke-linejoin="round"/>
<path fill-rule="evenodd" clip-rule="evenodd" d="M154.241 110.58L169.004 101.793C165.56 98.2883 161.798 94.9924 157.718 91.9064C153.637 88.8189 148.956 85.7504 143.673 82.7004C138.295 79.5954 133.2 77.3173 128.389 75.8667C123.577 74.4151 119.344 74.0429 115.688 74.7482C113.766 75.119 112.056 75.8255 110.557 76.8677L97.3389 85.7461C98.5228 85.1108 99.8214 84.6568 101.234 84.3842C102.513 84.1375 103.862 84.0226 105.282 84.0397C107.922 84.0713 110.806 84.5588 113.935 85.5027C118.746 86.9533 123.841 89.2314 129.219 92.3364C134.502 95.3863 139.183 98.4548 143.264 101.542C146.121 103.703 148.822 105.967 151.367 108.333C152.323 109.044 153.281 109.793 154.241 110.58Z" fill="white" stroke="black" stroke-opacity="0.5" stroke-linecap="round" stroke-linejoin="round"/>
<path d="M117.757 185.551C115.723 184.376 113.697 183.037 111.68 181.532C108.831 179.408 105.998 176.954 103.182 174.171C98.3701 169.417 93.9125 163.878 89.808 157.555V183.548C93.4874 187.839 97.8391 191.976 102.863 195.96C107.887 199.943 113.181 203.542 118.748 206.755C124.173 209.888 129.326 212.267 134.208 213.894C139.091 215.522 143.371 216.03 147.051 215.419C149.243 215.056 151.163 214.237 152.811 212.963C153.929 212.099 154.921 211.025 155.789 209.742C156.503 208.685 157.099 207.445 157.576 206.019C158.531 203.164 159.008 199.568 159.008 195.233C159.008 190.521 158.395 186.039 157.169 181.784C155.942 177.528 154.173 173.352 151.862 169.256C149.551 165.16 146.779 161.082 143.548 157.024C140.317 152.965 136.673 148.789 132.616 144.498C129.644 141.374 126.979 138.467 124.62 135.779C122.262 133.091 120.257 130.579 118.606 128.246C116.955 125.911 115.682 123.714 114.786 121.653C113.889 119.593 113.441 117.587 113.441 115.637C113.441 113.85 113.842 112.471 114.644 111.499C115.446 110.526 116.578 109.948 118.041 109.764C119.503 109.579 121.295 109.815 123.418 110.472C125.367 111.076 127.513 112.032 129.859 113.344C130.069 113.461 130.281 113.582 130.494 113.705C132.38 114.794 134.374 116.107 136.472 117.643C138.572 119.181 140.683 120.901 142.805 122.802C144.928 124.705 146.992 126.749 148.997 128.936C151.002 131.123 152.853 133.383 154.551 135.717V110.966C153.519 109.915 152.458 109.347 151.368 108.333C148.823 105.967 146.122 103.703 143.265 101.542C139.184 98.4549 134.503 95.3864 129.22 92.3365C123.842 89.2314 118.748 86.9534 113.936 85.5028C110.807 84.5589 107.923 84.0714 105.284 84.0398C103.864 84.0227 102.514 84.1376 101.236 84.3843C99.8227 84.6569 98.5241 85.1109 97.3402 85.7462L95.2727 87.1348C94.2637 87.9673 93.3622 88.9697 92.5678 90.1421C90.4448 93.2762 89.3838 97.8759 89.3838 103.941C89.3838 111.686 91.3297 119.416 95.2217 127.132C99.1128 134.848 105.021 142.889 112.946 151.256C116.059 154.516 118.96 157.625 121.649 160.586C124.338 163.546 126.661 166.35 128.618 168.995C130.532 171.583 132.05 174.07 133.175 176.46L133.201 176.515L133.205 176.523L133.209 176.531L133.211 176.537L133.253 176.626C134.385 179.067 134.951 181.425 134.951 183.7C134.951 185.379 134.597 186.731 133.89 187.757C133.182 188.784 132.109 189.41 130.671 189.635C129.232 189.86 127.439 189.652 125.293 189.008C123.146 188.365 120.635 187.212 117.757 185.551Z" fill="white" stroke="black" stroke-opacity="0.5" stroke-linecap="round" stroke-linejoin="round"/>
<path fill-rule="evenodd" clip-rule="evenodd" d="M51.9093 69.0635L66.3633 77.4085L80.7111 85.6922V67.7112V64.33L14.8866 26.3262L0.432617 17.9812V39.3434L29.0938 55.891V151.007L51.9093 164.179V146.198V69.0635Z" fill="white" stroke="black" stroke-opacity="0.5" stroke-linecap="round" stroke-linejoin="round"/>
<path fill-rule="evenodd" clip-rule="evenodd" d="M66.3631 77.4085L51.9092 69.0635V146.198V164.179L66.3631 154.543V77.4085Z" fill="#F2F2F2" stroke="black" stroke-opacity="0.5" stroke-linecap="round" stroke-linejoin="round"/>
<path fill-rule="evenodd" clip-rule="evenodd" d="M80.7109 64.3299V67.7111V85.6921L95.165 76.0561V54.6939L80.7109 64.3299Z" fill="#F2F2F2" stroke="black" stroke-opacity="0.5" stroke-linecap="round" stroke-linejoin="round"/>
<path fill-rule="evenodd" clip-rule="evenodd" d="M0.432617 17.981L14.8866 26.326L80.7111 64.3298L95.1651 54.6939L14.8866 8.34504L0.432617 17.981Z" fill="white" stroke="black" stroke-opacity="0.5" stroke-linecap="round" stroke-linejoin="round"/>
<path d="M154.242 110.595L169.005 101.808V126.096L154.551 135.732L154.242 110.595Z" fill="#F2F2F2" stroke="black" stroke-opacity="0.5" stroke-linecap="round" stroke-linejoin="round"/>
</svg>
