<svg width="204" height="222" viewBox="0 0 204 222" fill="none" xmlns="http://www.w3.org/2000/svg">
<rect width="64.7693" height="64.7693" transform="matrix(-0.866025 0.5 0 1 113.05 71.7412)" fill="#E6E6E6" stroke="black" stroke-opacity="0.5"/>
<rect width="64.7693" height="64.7693" transform="matrix(-0.866025 -0.5 -0.866025 0.5 113.05 71.7412)" fill="white" stroke="black" stroke-opacity="0.5"/>
<rect width="64.7693" height="64.7693" transform="matrix(-0.866025 -0.5 0 1 56.958 104.126)" fill="white" stroke="black" stroke-opacity="0.5"/>
<rect width="64.7693" height="64.7693" transform="matrix(-0.866025 0.5 0 1 202.797 123.346)" fill="#F2F2F2" stroke="black" stroke-opacity="0.5"/>
<rect width="64.7693" height="64.7693" transform="matrix(-0.866025 -0.5 -0.866025 0.5 202.797 123.346)" fill="white" stroke="black" stroke-opacity="0.5"/>
<rect width="64.7693" height="64.7693" transform="matrix(-0.866025 -0.5 0 1 146.705 155.73)" fill="white" stroke="black" stroke-opacity="0.5"/>
<rect width="64.7693" height="64.7693" transform="matrix(-0.866025 0.5 0 1 157.922 32.8845)" fill="#F2F2F2" stroke="black" stroke-opacity="0.5"/>
<rect width="64.7693" height="64.7693" transform="matrix(-0.866025 -0.5 -0.866025 0.5 157.922 32.8845)" fill="white" stroke="black" stroke-opacity="0.5"/>
<rect width="64.7693" height="64.7693" transform="matrix(-0.866025 -0.5 0 1 101.83 65.269)" fill="white" stroke="black" stroke-opacity="0.5"/>
</svg>
