<svg width="748" height="418" viewBox="0 0 748 418" fill="none" xmlns="http://www.w3.org/2000/svg">
<path fill-rule="evenodd" clip-rule="evenodd" d="M226.762 260.256L226.762 246.371C226.448 241.962 228.546 237.038 233.254 232.331C236.886 228.699 241.619 225.648 246.87 223.336L222.187 216.722L188.82 207.781L188.819 250.09L226.762 260.256Z" fill="#F7F7F7" stroke="black" stroke-opacity="0.8" stroke-width="0.5" stroke-linecap="round" stroke-linejoin="round"/>
<path fill-rule="evenodd" clip-rule="evenodd" d="M274.359 255.823C265.761 259.656 255.741 261.505 246.87 260.683C244.682 260.48 242.564 260.114 240.554 259.575C231.937 257.267 227.183 252.28 226.762 246.371L226.762 260.256L226.762 286.934C226.297 293.595 231.101 299.351 240.554 301.884C255.6 305.915 276.727 300.254 287.742 289.24C291.374 285.607 293.454 281.847 294.069 278.292L294.069 235.984C293.453 239.538 291.374 243.299 287.742 246.931C284.163 250.51 279.517 253.524 274.359 255.823ZM515.749 295.382L591.538 219.593C593.637 217.494 595.5 215.375 597.131 213.251C602.417 206.366 605.264 199.416 605.795 192.856L605.868 231.938C606.212 241.399 601.566 251.873 591.538 261.901L515.749 337.69L515.749 295.382Z" fill="#F7F7F7" stroke="black" stroke-opacity="0.8" stroke-width="0.5" stroke-linecap="round" stroke-linejoin="round"/>
<path d="M246.871 223.336L222.188 216.722L188.82 207.781" stroke="black" stroke-opacity="0.8" stroke-width="0.5" stroke-linecap="round" stroke-linejoin="round"/>
<path fill-rule="evenodd" clip-rule="evenodd" d="M410.417 267.158L294.069 235.983L294.069 278.292L390.363 304.093L457.616 322.113L515.749 337.69L515.749 295.382L457.616 279.805L410.417 267.158Z" fill="#F7F7F7" stroke="black" stroke-opacity="0.8" stroke-width="0.5" stroke-linecap="round" stroke-linejoin="round"/>
<path fill-rule="evenodd" clip-rule="evenodd" d="M294.07 235.983L410.418 267.158L457.616 279.805L515.749 295.382L591.538 219.593C593.637 217.494 595.501 215.376 597.132 213.251C602.417 206.366 605.264 199.416 605.795 192.856L605.787 188.305C604.676 175.481 594.239 164.685 575.479 159.658L308.485 88.1172L265.923 130.679L231.382 165.22L188.82 207.781L222.187 216.722L246.871 223.336C241.619 225.648 236.887 228.699 233.254 232.332C228.547 237.039 226.448 241.962 226.763 246.371C227.184 252.28 231.938 257.267 240.554 259.576C242.564 260.114 244.683 260.48 246.871 260.683C255.742 261.506 265.762 259.656 274.359 255.824C279.517 253.524 284.164 250.51 287.743 246.932C291.375 243.299 293.454 239.537 294.07 235.983Z" fill="white" stroke="black" stroke-opacity="0.8" stroke-width="0.5" stroke-linecap="round" stroke-linejoin="round"/>
<g clip-path="url(#clip0_338_341)">
<path d="M445.805 186.52L469.532 192.878L466.326 196.084L456.914 193.562L440.047 210.428L435.341 209.167L452.207 192.301L442.599 189.726L445.805 186.52Z" fill="black"/>
<path d="M406.783 176.064L403.577 179.27L384.558 174.174L379.4 179.331L394.695 183.43L391.489 186.636L376.194 182.537L370.898 187.834L389.917 192.93L386.711 196.136L362.985 189.779L379.852 172.913L379.85 172.913L383.056 169.707L406.783 176.064Z" fill="black"/>
<path d="M418.622 179.247L412.463 177.597L414.451 203.58L420.628 205.235L419.625 192.25L440.667 185.174L434.501 183.53L419.345 188.621L418.622 179.247Z" fill="black"/>
<path d="M410.604 195.278L410.327 191.645L392.358 197.68L398.534 199.335L410.604 195.278Z" fill="black"/>
<path fill-rule="evenodd" clip-rule="evenodd" d="M363.15 189.823L361.14 163.824L355.258 162.248L335.186 182.32L339.892 183.581L355.674 167.799L357.238 188.239L363.15 189.823Z" fill="black"/>
<path d="M450.641 213.111C450.296 213.018 450.091 212.853 450.02 212.612C449.949 212.371 450.04 212.127 450.293 211.877C450.534 211.633 450.865 211.456 451.285 211.347C451.705 211.238 452.086 211.229 452.431 211.321C452.762 211.41 452.965 211.575 453.036 211.816C453.11 212.057 453.024 212.3 452.784 212.545C452.615 212.709 452.406 212.846 452.155 212.951C451.899 213.057 451.642 213.125 451.375 213.153C451.109 213.184 450.864 213.171 450.641 213.111Z" fill="black"/>
<path d="M467.129 206.807L469.214 207.366L463.333 213.248C462.789 213.788 462.167 214.207 461.466 214.512C460.762 214.817 460.028 214.996 459.257 215.055C458.492 215.113 457.733 215.043 456.99 214.844C456.31 214.662 455.791 214.409 455.424 214.089C455.057 213.769 454.888 213.392 454.918 212.962C454.944 212.531 455.218 212.059 455.733 211.544L457.822 212.104C457.599 212.33 457.474 212.544 457.445 212.744C457.415 212.943 457.476 213.117 457.625 213.267C457.776 213.419 458.007 213.536 458.316 213.619C458.651 213.709 458.989 213.735 459.325 213.694C459.659 213.655 459.989 213.551 460.316 213.382C460.637 213.214 460.95 212.983 461.247 212.689L467.129 206.807Z" fill="black"/>
<path d="M475.495 211.966C475.801 211.596 475.856 211.258 475.665 210.956C475.472 210.65 475.064 210.416 474.442 210.249C474.006 210.132 473.581 210.079 473.174 210.09C472.765 210.103 472.394 210.167 472.065 210.286C471.736 210.405 471.467 210.569 471.251 210.776C471.076 210.951 470.981 211.118 470.967 211.275C470.95 211.433 470.991 211.582 471.098 211.721C471.2 211.862 471.34 211.993 471.513 212.115C471.689 212.238 471.875 212.352 472.069 212.457L472.961 212.944C473.324 213.134 473.65 213.347 473.928 213.582C474.209 213.815 474.417 214.072 474.548 214.349C474.679 214.626 474.704 214.924 474.623 215.244C474.542 215.563 474.323 215.904 473.959 216.268C473.469 216.758 472.867 217.142 472.146 217.421C471.429 217.698 470.638 217.854 469.772 217.887C468.911 217.919 468.015 217.813 467.083 217.564C466.184 217.323 465.501 217.011 465.043 216.632C464.58 216.254 464.358 215.821 464.371 215.335C464.385 214.848 464.655 214.323 465.181 213.761L467.248 214.315C466.986 214.612 466.872 214.888 466.894 215.142C466.92 215.394 467.065 215.613 467.319 215.804C467.579 215.993 467.926 216.147 468.363 216.264C468.819 216.386 469.271 216.444 469.717 216.438C470.161 216.431 470.57 216.366 470.944 216.238C471.319 216.114 471.627 215.931 471.869 215.693C472.085 215.474 472.177 215.268 472.147 215.079C472.115 214.89 471.992 214.705 471.779 214.526C471.563 214.345 471.287 214.16 470.948 213.973L469.872 213.376C469.096 212.943 468.609 212.472 468.419 211.963C468.225 211.453 468.429 210.901 469.029 210.301C469.522 209.808 470.139 209.425 470.883 209.155C471.623 208.884 472.418 208.732 473.263 208.699C474.114 208.665 474.943 208.758 475.752 208.975C476.575 209.196 477.195 209.49 477.61 209.864C478.026 210.235 478.229 210.651 478.22 211.109C478.21 211.568 477.979 212.034 477.517 212.508L475.495 211.966Z" fill="black"/>
</g>
<defs>
<clipPath id="clip0_338_341">
<rect width="141.026" height="28.6347" fill="white" transform="matrix(0.965926 0.258819 -0.707107 0.707107 355.258 162.248)"/>
</clipPath>
</defs>
</svg>
