<svg width="871" height="459" viewBox="0 0 871 459" fill="none" xmlns="http://www.w3.org/2000/svg">
<path fill-rule="evenodd" clip-rule="evenodd" d="M463.291 276.138L548.456 190.966L463.284 276.139L463.291 276.138ZM486.288 279.882C486.559 280.045 486.824 280.212 487.08 280.384C488.597 281.398 489.85 282.548 490.827 283.806C491.97 285.277 492.736 286.896 493.117 288.613L493.12 288.609C492.739 286.894 491.97 285.276 490.827 283.806C489.849 282.548 488.598 281.397 487.08 280.384C486.824 280.212 486.559 280.045 486.288 279.882ZM428.732 352.998L386.175 395.554L386.175 353.247L428.732 310.69L428.732 352.998Z" fill="#F7F7F7"/>
<path d="M484.516 278.927C484.859 279.093 485.193 279.263 485.517 279.44C485.78 279.584 486.037 279.731 486.288 279.882C486.559 280.045 486.824 280.212 487.08 280.384M487.08 280.384C488.597 281.398 489.85 282.548 490.827 283.806M487.08 280.384C488.598 281.397 489.849 282.548 490.827 283.806M487.08 280.384C487.045 280.36 487.01 280.338 486.975 280.315M490.827 283.806C491.97 285.277 492.736 286.896 493.117 288.613L493.12 288.609M490.827 283.806C491.97 285.276 492.739 286.894 493.12 288.609M493.12 288.609C492.763 287.001 492.065 285.479 491.037 284.084M559.415 197.286C559.414 197.285 559.412 197.284 559.41 197.284M609.37 162.746C609.464 162.84 609.554 162.936 609.644 163.031C609.646 163.033 609.651 163.034 609.653 163.036M463.291 276.138L548.456 190.966L463.284 276.139L463.291 276.138ZM428.732 352.998L386.175 395.554L386.175 353.247L428.732 310.69L428.732 352.998Z" stroke="black" stroke-opacity="0.8" stroke-width="0.5" stroke-linecap="round"/>
<path d="M625.509 156.227L625.509 156.415M428.737 352.999L428.737 353.248M328.048 379.979L328.048 380.012M386.181 395.556L386.181 395.736" stroke="black" stroke-opacity="0.8" stroke-width="0.5"/>
<path d="M493.305 332.011L493.303 333.552M493.369 290.367L493.366 292.062" stroke="black" stroke-opacity="0.8" stroke-width="0.5" stroke-linecap="round"/>
<path d="M585.363 196.371L585.358 196.376L585.362 196.374M559.415 197.286C559.413 197.286 559.412 197.285 559.41 197.284" stroke="black" stroke-opacity="0.8" stroke-width="0.5" stroke-linecap="round"/>
<path fill-rule="evenodd" clip-rule="evenodd" d="M625.504 113.918L592.137 147.285L583.008 156.414L583.016 156.413L592.142 147.287L625.504 113.925L625.504 113.918ZM599.303 157.398C599.302 157.398 599.304 157.398 599.303 157.398C599.302 157.397 599.305 157.398 599.303 157.398Z" fill="#F7F7F7"/>
<path d="M599.303 157.398C599.302 157.398 599.304 157.398 599.303 157.398ZM599.303 157.398L599.301 157.397M599.303 157.398C599.305 157.398 599.302 157.397 599.303 157.398ZM599.303 157.398L599.302 157.397M599.301 157.397L599.302 157.397M599.301 157.397C599.3 157.397 599.3 157.396 599.299 157.396L599.298 157.396M599.301 157.397C599.3 157.397 599.299 157.396 599.298 157.396M609.644 163.031C609.553 162.936 609.463 162.84 609.369 162.746M599.302 157.397C599.301 157.397 599.299 157.396 599.298 157.396M599.298 157.396C599.689 157.501 600.072 157.611 600.446 157.726M625.504 113.918L592.137 147.285L583.008 156.414L583.016 156.413L592.142 147.287L625.504 113.925L625.504 113.918Z" stroke="black" stroke-opacity="0.8" stroke-width="0.5" stroke-linecap="round"/>
<path d="M386.18 353.247L428.737 310.692M412.185 119.98L222.716 309.448L256.083 318.389L280.849 325.025M609.644 163.031C609.554 162.936 609.463 162.84 609.369 162.746M463.291 276.138C468.993 275.516 474.614 275.791 479.574 277.12C479.576 277.121 479.577 277.122 479.579 277.122C474.617 275.793 468.993 275.517 463.289 276.14L463.291 276.138Z" stroke="black" stroke-opacity="0.8" stroke-width="0.5" stroke-linecap="round"/>
<path d="M328.048 337.672L386.179 353.248L386.179 353.246L328.048 337.672ZM328.048 337.672L328.046 337.669" stroke="black" stroke-opacity="0.8" stroke-width="0.5" stroke-linecap="round"/>
<path fill-rule="evenodd" clip-rule="evenodd" d="M486.874 304.364C481.548 309.691 473.857 313.765 465.633 316.097C456.849 318.588 447.457 319.091 439.686 317.008C434.723 315.679 431.042 313.461 428.732 310.69L428.732 352.998C431.043 355.769 434.723 357.986 439.686 359.316C454.732 363.348 475.859 357.687 486.874 346.672C491.803 341.743 493.872 336.576 493.305 332.011L493.366 292.062C493.092 296.006 490.972 300.267 486.874 304.364Z" fill="#F7F7F7" stroke="black" stroke-opacity="0.8" stroke-width="0.5" stroke-linecap="round"/>
<path d="M609.644 163.031C609.553 162.936 609.463 162.84 609.369 162.746M599.298 157.396C599.689 157.5 600.071 157.611 600.446 157.726" stroke="black" stroke-opacity="0.8" stroke-width="0.5" stroke-linecap="round"/>
<path d="M599.298 157.396L599.299 157.396C599.299 157.396 599.3 157.396 599.301 157.397" stroke="black" stroke-opacity="0.8" stroke-width="0.5" stroke-linecap="round"/>
<path fill-rule="evenodd" clip-rule="evenodd" d="M583.014 156.416L548.457 190.966L463.292 276.138C468.993 275.516 474.614 275.792 479.574 277.121C480.026 277.242 480.466 277.37 480.897 277.505C481.392 277.661 481.873 277.827 482.34 278.001C482.483 278.054 482.625 278.109 482.766 278.164C483 278.256 483.23 278.35 483.457 278.447C483.82 278.601 484.172 278.761 484.516 278.927C484.859 279.093 485.193 279.264 485.517 279.44C485.781 279.584 486.038 279.731 486.289 279.882C486.56 280.045 486.824 280.213 487.08 280.384C488.598 281.398 489.85 282.548 490.828 283.806C491.971 285.277 492.739 286.894 493.121 288.61L505.84 275.89L548.457 233.274L585.359 196.376L585.363 196.371L612.847 168.891L612.845 168.885L625.505 156.226L625.505 113.925L592.143 147.287L583.016 156.413L583.014 156.416Z" fill="#F7F7F7" stroke="black" stroke-opacity="0.8" stroke-width="0.5" stroke-linecap="round"/>
<path d="M280.849 367.333L222.716 351.756L222.716 309.448L256.083 318.389L280.849 325.025L328.048 337.672L386.179 353.246L386.179 353.248L386.179 395.553L328.046 379.977L280.849 367.333Z" fill="#F7F7F7"/>
<path d="M386.179 353.248L386.179 395.553L328.046 379.977L280.849 367.333L222.716 351.756L222.716 309.448L256.083 318.389L280.849 325.025L328.048 337.672M386.179 353.248L328.048 337.672M386.179 353.248L386.179 353.246L328.048 337.672" stroke="black" stroke-opacity="0.8" stroke-width="0.5" stroke-linecap="round"/>
<path fill-rule="evenodd" clip-rule="evenodd" d="M256.083 318.389L280.849 325.025L328.048 337.672L386.179 353.246L386.179 353.248L428.737 310.692C431.047 313.463 434.728 315.681 439.69 317.01C447.461 319.093 456.854 318.589 465.638 316.099C473.862 313.767 481.552 309.692 486.879 304.366C490.976 300.269 493.097 296.008 493.37 292.064C493.452 290.881 493.368 289.727 493.121 288.615L493.12 288.609C492.739 286.894 491.97 285.277 490.827 283.806C489.849 282.548 488.597 281.397 487.079 280.384C486.823 280.212 486.559 280.045 486.288 279.882C486.037 279.731 485.78 279.584 485.517 279.44C485.193 279.263 484.859 279.092 484.515 278.927C484.172 278.761 483.819 278.601 483.456 278.446C483.229 278.35 482.999 278.256 482.765 278.164C482.625 278.108 482.483 278.054 482.34 278.001C481.872 277.826 481.391 277.661 480.896 277.505C480.467 277.37 480.028 277.243 479.579 277.122C474.616 275.793 468.993 275.517 463.288 276.14L463.291 276.138L548.456 190.966L583.013 156.416L583.016 156.413L592.142 147.287L625.504 113.925L625.509 113.92L530.155 88.3696C492.539 78.2904 439.721 92.4427 412.184 119.98L222.716 309.448L256.083 318.389Z" fill="white" stroke="black" stroke-opacity="0.8" stroke-width="0.5" stroke-linecap="round"/>
<g clip-path="url(#clip0_338_312)">
<path d="M478.183 210.11L473.023 215.271L468.931 215.582C465.821 215.821 462.716 217.216 461.054 219.121C460.476 219.782 459.859 220.443 459.208 221.094C449.676 230.621 433.643 237.382 417.706 238.597C401.769 239.811 388.622 235.273 383.674 226.85L392.077 226.209L392.558 226.168C397.742 232.124 408.554 234.928 420.967 233.537C433.38 232.146 445.535 226.768 452.906 219.405C453.817 218.493 454.647 217.561 455.39 216.613L389.933 221.602L376.392 222.633L360.562 223.839L365.735 218.666L381.675 217.451L389.425 216.857L478.183 210.11ZM431.377 185.004C447.316 183.787 460.468 188.324 465.419 196.747L464.262 196.836L456.512 197.426C451.315 191.486 440.509 188.694 428.11 190.087C415.711 191.48 403.572 196.85 396.203 204.202C395.297 205.108 394.473 206.035 393.736 206.977L459.119 202.001L472.66 200.969L488.539 199.754L483.363 204.93L467.352 206.151L459.607 206.74L390.673 211.992L386.833 212.284L382.935 212.583L370.901 213.5L376.079 208.322L380.167 208.01C383.277 207.773 386.385 206.378 388.047 204.472C388.621 203.814 389.23 203.162 389.876 202.517C399.403 192.987 415.437 186.221 431.377 185.004Z" fill="black"/>
</g>
<defs>
<clipPath id="clip0_338_312">
<rect width="84.6154" height="71.6793" fill="white" transform="matrix(0.965926 0.258819 -0.707107 0.707107 409.025 175.507)"/>
</clipPath>
</defs>
</svg>
