<svg width="807" height="425" viewBox="0 0 807 425" fill="none" xmlns="http://www.w3.org/2000/svg">
<path d="M532.762 294.301L532.762 294.549M609.87 217.193L609.87 217.441M567.314 259.749L567.314 260.087" stroke="black" stroke-opacity="0.8" stroke-width="0.5" stroke-linecap="round" stroke-linejoin="round"/>
<path d="M196.882 230.557L196.88 231.828M196.923 190.246L196.921 192.367" stroke="black" stroke-opacity="0.8" stroke-width="0.5" stroke-linecap="round" stroke-linejoin="round"/>
<path fill-rule="evenodd" clip-rule="evenodd" d="M565.353 150.313C569.644 146.023 571.767 141.553 571.871 137.456L571.871 164.704L551.736 159.309C556.988 156.996 561.721 153.946 565.353 150.313Z" fill="#F7F7F7" stroke="black" stroke-opacity="0.8" stroke-width="0.5" stroke-linecap="round" stroke-linejoin="round"/>
<path fill-rule="evenodd" clip-rule="evenodd" d="M532.761 251.993L567.313 217.441C565.003 214.671 561.321 212.453 556.359 211.123C541.312 207.092 520.186 212.753 509.171 223.767C498.156 234.782 501.424 246.98 516.471 251.011C521.433 252.341 527.057 252.616 532.761 251.993Z" fill="#F7F7F7" stroke="black" stroke-opacity="0.8" stroke-width="0.5" stroke-linecap="round" stroke-linejoin="round"/>
<path d="M231.387 225.199L490.206 294.55L502.929 281.826" stroke="black" stroke-opacity="0.8" stroke-width="0.5" stroke-linecap="round" stroke-linejoin="round"/>
<path fill-rule="evenodd" clip-rule="evenodd" d="M196.921 192.366C196.983 193.166 197.076 193.959 197.202 194.745C198.078 200.244 200.506 205.374 204.419 209.895C205.144 210.732 205.919 211.548 206.745 212.342C212.529 217.9 220.789 222.36 231.387 225.199L490.205 294.55L490.205 336.857L231.387 267.507C207.955 261.228 195.949 247.029 196.882 230.557L196.921 192.366Z" fill="#F7F7F7" stroke="black" stroke-opacity="0.8" stroke-width="0.5" stroke-linecap="round" stroke-linejoin="round"/>
<path fill-rule="evenodd" clip-rule="evenodd" d="M490.205 294.55L502.929 281.826L530.413 254.342L532.761 251.993L567.313 217.442L576.503 208.252L609.869 174.886L571.871 164.704L551.737 159.309C556.988 156.996 561.721 153.946 565.353 150.313C569.644 146.023 571.767 141.553 571.871 137.456C572.035 131.035 567.239 125.531 558.054 123.069C543.007 119.038 521.88 124.699 510.865 135.713C507.233 139.346 505.154 143.107 504.538 146.662L408.389 120.899L388.272 115.509L341.074 102.862L282.941 87.2852L213.137 157.089C201.305 168.92 196.066 181.297 196.921 192.367C196.983 193.166 197.076 193.96 197.202 194.745C198.079 200.244 200.506 205.374 204.419 209.895C205.144 210.732 205.919 211.549 206.746 212.343C212.529 217.9 220.789 222.36 231.387 225.2L490.205 294.55Z" fill="white" stroke="black" stroke-opacity="0.8" stroke-width="0.5" stroke-linecap="round" stroke-linejoin="round"/>
<path fill-rule="evenodd" clip-rule="evenodd" d="M576.503 208.252L567.313 217.442L532.761 251.993L530.413 254.342L502.929 281.826L490.205 294.55L490.205 336.857L532.762 294.301L567.313 259.749L609.869 217.193L609.869 174.885L576.503 208.252Z" fill="#F7F7F7" stroke="black" stroke-opacity="0.8" stroke-width="0.5" stroke-linecap="round" stroke-linejoin="round"/>
<g clip-path="url(#clip0_338_356)">
<path fill-rule="evenodd" clip-rule="evenodd" d="M391.31 173.221C380.432 170.306 369.704 172.443 359.065 179.615C367.119 176.761 373.351 176.559 377.864 178.98C380.39 180.372 380.998 182.628 381.655 185.062C382.641 189.126 383.846 193.799 393.951 196.507C404.829 199.422 415.617 197.301 426.256 190.129C418.202 192.982 411.97 193.185 407.56 190.736C405.033 189.344 404.425 187.088 403.769 184.654C402.68 180.618 401.475 175.944 391.31 173.221ZM353.115 185.565C342.177 182.634 331.449 184.771 320.81 191.943C328.863 189.089 335.095 188.887 339.609 191.308C342.135 192.701 342.743 194.956 343.4 197.39C344.385 201.454 345.591 206.127 355.696 208.835C366.574 211.75 377.362 209.629 388.001 202.457C379.947 205.31 373.715 205.513 369.245 203.049C366.719 201.656 366.11 199.4 365.454 196.966C364.425 192.946 363.22 188.272 353.115 185.565Z" fill="black"/>
</g>
<defs>
<clipPath id="clip0_338_356">
<rect width="84.6154" height="50.3663" fill="white" transform="matrix(0.965926 0.258819 -0.707107 0.707107 350.474 162.279)"/>
</clipPath>
</defs>
</svg>
