<svg width="831" height="484" viewBox="0 0 831 484" fill="none" xmlns="http://www.w3.org/2000/svg">
<path d="M259.634 312.013L247.199 324.449L280.566 333.389L356.175 353.649C364.635 355.916 374.058 356.65 383.722 356.046M247.198 366.756L247.198 366.819" stroke="black" stroke-opacity="0.8" stroke-width="0.5"/>
<path fill-rule="evenodd" clip-rule="evenodd" d="M379.31 147.374C379.409 153.573 384.191 158.851 393.13 161.246C398.092 162.576 403.716 162.851 409.42 162.228L407.071 164.577L379.587 192.061L379.309 192.339L379.31 147.374Z" fill="#F7F7F7" stroke="black" stroke-opacity="0.8" stroke-width="0.5"/>
<path fill-rule="evenodd" clip-rule="evenodd" d="M544.66 138.044C542.472 137.841 540.354 137.475 538.344 136.937C523.297 132.905 520.029 120.707 531.044 109.693C534.676 106.06 539.409 103.01 544.66 100.697L544.66 138.044Z" fill="#F7F7F7" stroke="black" stroke-opacity="0.8" stroke-width="0.5"/>
<path d="M247.199 324.448L280.566 333.389L356.176 353.649C386.269 361.712 428.522 350.39 450.552 328.36L616.625 162.287L649.992 128.92L649.992 171.228L450.552 370.668C428.522 392.698 386.269 404.02 356.176 395.956L247.199 366.756L247.199 324.448Z" fill="#F7F7F7" stroke="black" stroke-opacity="0.8" stroke-width="0.5"/>
<path fill-rule="evenodd" clip-rule="evenodd" d="M247.199 324.449L280.566 333.389L356.175 353.649C386.268 361.712 428.522 350.39 450.552 328.361L616.625 162.287L649.992 128.92L591.859 113.344L544.66 100.697L486.527 85.1201L443.971 127.676C441.661 124.906 437.979 122.688 433.017 121.358C417.97 117.326 396.844 122.987 385.829 134.002C381.358 138.473 379.24 143.139 379.308 147.374C379.408 153.574 384.19 158.851 393.129 161.246C398.091 162.576 403.715 162.851 409.419 162.228L407.07 164.577L379.586 192.061L379.308 192.339L324.246 247.401L289.695 281.953L289.69 281.958L287.346 284.302L287.342 284.306L259.861 311.786L259.858 311.791L259.638 312.009L259.634 312.013L247.199 324.449Z" fill="white" stroke="black" stroke-opacity="0.8" stroke-width="0.5"/>
<g clip-path="url(#clip0_338_368)">
<path d="M437.979 202.876L500.981 219.757C502.391 220.135 502.698 221.278 501.665 222.311L455.545 268.432C454.512 269.464 452.531 269.995 451.121 269.617L388.119 252.736C386.708 252.358 386.402 251.214 387.434 250.182L433.555 204.061C434.588 203.028 436.568 202.498 437.979 202.876Z" fill="white"/>
<path d="M437.979 202.876L500.981 219.757C502.391 220.135 502.698 221.278 501.665 222.311L455.545 268.432C454.512 269.464 452.531 269.995 451.121 269.617L388.119 252.736C386.708 252.358 386.402 251.214 387.434 250.182L433.555 204.061C434.588 203.028 436.568 202.498 437.979 202.876ZM446.761 238.862L450.85 234.772L426.61 228.277L422.521 232.367L431.175 234.686L412.967 252.893L419.856 254.739L438.064 236.531L446.761 238.862ZM431.78 257.325C432.477 258.037 433.48 258.7 434.789 259.314C436.099 259.928 437.594 260.46 439.274 260.91C440.912 261.349 442.583 261.652 444.285 261.819C445.987 261.986 447.655 261.956 449.29 261.73C450.924 261.505 452.488 261.056 453.981 260.385C455.474 259.714 456.842 258.756 458.086 257.512C458.988 256.61 459.593 255.77 459.902 254.992C460.211 254.214 460.281 253.467 460.112 252.751C459.942 252.035 459.58 251.337 459.024 250.656C458.468 249.974 457.764 249.283 456.912 248.582C456.285 248.072 455.742 247.594 455.284 247.149C454.825 246.705 454.479 246.283 454.245 245.885C454.011 245.487 453.906 245.105 453.931 244.736C453.956 244.369 454.155 243.998 454.528 243.625C454.87 243.283 455.3 243.007 455.816 242.797C456.333 242.587 456.911 242.443 457.55 242.364C458.188 242.285 458.882 242.278 459.632 242.341C460.382 242.404 461.148 242.54 461.932 242.75C462.501 242.902 463.072 243.095 463.644 243.327C464.215 243.559 464.757 243.826 465.268 244.127C465.78 244.428 466.24 244.758 466.648 245.118C467.056 245.477 467.387 245.855 467.641 246.251L472.29 241.602C471.541 241.033 470.62 240.513 469.528 240.043C468.436 239.573 467.092 239.124 465.497 238.697C463.873 238.262 462.208 237.977 460.501 237.842C458.794 237.706 457.119 237.76 455.476 238.004C453.833 238.247 452.274 238.7 450.799 239.362C449.323 240.025 448.005 240.937 446.844 242.098C445.362 243.581 444.685 245.003 444.813 246.365C444.941 247.727 445.838 249.091 447.506 250.458C448.166 250.99 448.767 251.499 449.309 251.986C449.852 252.473 450.273 252.941 450.574 253.39C450.875 253.838 451.025 254.279 451.025 254.713C451.025 255.147 450.807 255.581 450.371 256.017C450.05 256.338 449.645 256.608 449.157 256.825C448.668 257.042 448.106 257.194 447.47 257.28C446.833 257.365 446.133 257.379 445.371 257.319C444.609 257.259 443.794 257.113 442.925 256.88C441.444 256.483 440.166 255.901 439.091 255.134C438.017 254.366 437.239 253.438 436.756 252.349L431.78 257.325Z" fill="black"/>
</g>
<rect width="70.5129" height="70.5129" transform="matrix(0.965926 0.258819 -0.707107 0.707107 435.425 202.191)" stroke="black" stroke-opacity="0.8" stroke-width="0.5"/>
<defs>
<clipPath id="clip0_338_368">
<rect width="70.5129" height="70.5129" transform="matrix(0.965926 0.258819 -0.707107 0.707107 435.425 202.191)" fill="white"/>
</clipPath>
</defs>
</svg>
