<svg width="1185" height="1085" viewBox="0 0 1185 1085" fill="none" xmlns="http://www.w3.org/2000/svg">
<path fill-rule="evenodd" clip-rule="evenodd" d="M462.513 417.394L808.422 617.105L722.32 666.816L376.41 467.105L462.513 417.394Z" fill="#EBEBEB"/>
<path d="M462.513 17.3937V400.362V417.394L808.422 617.105L823.422 608.445L1154.83 417.105L462.513 17.3937Z" fill="#F7F7F7"/>
<path d="M30 267.105L361.41 458.445L376.41 467.105L462.513 417.394V400.362V17.3937L30 267.105Z" fill="#F7F7F7"/>
<path d="M1184.83 417.105L1154.83 434.425L838.422 617.105L823.422 625.765L722.361 683.965V1066.84L722.376 1084.1L1184.83 817.105V417.105Z" fill="white"/>
<path fill-rule="evenodd" clip-rule="evenodd" d="M0 267.105V667.105L722.376 1084.1L722.361 1066.84V683.965L361.41 475.765L346.41 467.105L30 284.426L0 267.105Z" fill="white"/>
<path fill-rule="evenodd" clip-rule="evenodd" d="M722.361 683.965L361.41 475.765L346.41 467.105L30 284.426L0 267.105L462.639 0V0.146416L1184.83 417.105L1154.83 434.425L838.422 617.105L823.422 625.765L722.361 683.965ZM722.32 666.816L808.422 617.105L823.422 608.445L1154.83 417.105L462.513 17.3937L30 267.105L361.41 458.445L376.41 467.105L722.32 666.816Z" fill="white"/>
<path d="M29.75 284.858L346.16 467.538L361.16 476.198L721.86 684.254V1066.84L721.875 1083.24L0.5 666.815V267.971L29.75 284.858ZM1183.83 417.104L1154.58 433.992L838.173 616.672L823.173 625.332L722.359 683.388L361.66 475.332L346.66 466.672L30.25 283.992L1 267.104L462.513 0.649414L1183.83 417.104ZM462.513 16.8164L462.013 16.5273V17.1045L29.75 266.672L29 267.105L29.75 267.538L361.16 458.878L376.16 467.538L722.07 667.249L722.32 667.394L722.57 667.249L808.673 617.538L823.673 608.878L1155.08 417.538L1155.83 417.105L1155.08 416.672L463.013 17.1045V16.5273L462.513 16.8164ZM807.422 617.104L722.32 666.238L377.41 467.104L462.512 417.971L807.422 617.104ZM462.013 417.104L376.409 466.527L361.66 458.012L31 267.104L462.013 18.2598V417.104ZM722.86 684.254L823.672 626.198H823.673L838.673 617.538L1155.08 434.858L1184.33 417.971V816.815L722.875 1083.24L722.86 1066.84V684.254ZM463.013 18.2598L1153.83 417.104L823.173 608.012L808.423 616.527L463.013 417.104V18.2598Z" stroke="black"/>
</svg>
