<svg width="338" height="229" viewBox="0 0 338 229" fill="none" xmlns="http://www.w3.org/2000/svg">
<path fill-rule="evenodd" clip-rule="evenodd" d="M136.626 123.298L238.808 182.293L213.374 196.978L111.192 137.983L136.626 123.298Z" fill="#1A1A1A"/>
<path d="M136.626 5.1381V118.267V123.298L238.808 182.293L243.239 179.735L341.138 123.213L136.626 5.1381Z" fill="#0D0D0D"/>
<path d="M8.86201 78.9029L106.761 135.425L111.192 137.983L136.626 123.298V118.267V5.1381L8.86201 78.9029Z" fill="#0D0D0D"/>
<path d="M350 123.213L341.138 128.329L247.67 182.293L243.239 184.851L213.386 202.043V315.145L213.39 320.245L350 241.373V123.213Z" fill="black"/>
<path fill-rule="evenodd" clip-rule="evenodd" d="M0 78.9029V197.063L213.39 320.245L213.386 315.145V202.043L106.761 140.541L102.33 137.983L8.86201 84.0194L0 78.9029Z" fill="black"/>
<path fill-rule="evenodd" clip-rule="evenodd" d="M213.386 202.043L106.761 140.541L102.33 137.983L8.86201 84.0194L0 78.9029L136.664 0V0.0432515L350 123.213L341.138 128.329L247.67 182.293L243.239 184.851L213.386 202.043ZM213.374 196.978L238.808 182.293L243.239 179.735L341.138 123.213L136.626 5.1381L8.86201 78.9029L106.761 135.425L111.192 137.983L213.374 196.978Z" fill="black"/>
<path d="M8.72559 84.2559L102.193 138.22L106.624 140.778L213.112 202.201V315.145L213.115 319.771L0.273438 196.904V79.376L8.72559 84.2559ZM349.452 123.213L341.001 128.093L247.533 182.057L243.103 184.614L213.386 201.728L106.897 140.305L102.467 137.746L8.99902 83.7822L0.546875 78.9023L136.626 0.336914L349.452 123.213ZM136.626 4.82227L136.353 4.66406V4.97949L8.72559 78.666L8.31543 78.9033L8.72559 79.1396L106.624 135.661L110.645 137.982V137.983L111.055 138.22L213.237 197.215L213.374 197.293L213.511 197.215L238.945 182.529L239.355 182.293L239.354 182.292L243.376 179.972L341.274 123.45L341.685 123.213L341.274 122.977L136.899 4.97949V4.66406L136.626 4.82227ZM238.262 182.293L213.374 196.662L111.738 137.982L136.626 123.613L238.262 182.293ZM136.353 123.14L111.191 137.667L106.897 135.188L9.40918 78.9023L136.353 5.61133V123.14ZM213.659 202.201L243.376 185.088L247.807 182.529L341.274 128.566L349.727 123.687V241.215L213.662 319.771L213.659 315.145V202.201ZM136.899 5.61133L340.59 123.213L243.103 179.498L238.808 181.978L136.899 123.14V5.61133Z" stroke="white" stroke-opacity="0.7" stroke-width="0.546875"/>
</svg>
