<svg width="194" height="201" viewBox="0 0 194 201" fill="none" xmlns="http://www.w3.org/2000/svg">
<path fill-rule="evenodd" clip-rule="evenodd" d="M93.1644 192.634C93.5053 192.539 93.8335 192.407 94.1433 192.241L93.1644 192.634Z" fill="white"/>
<path fill-rule="evenodd" clip-rule="evenodd" d="M74.7806 200.002C74.5571 200.113 74.3247 200.206 74.0855 200.281L74.7806 200.002Z" fill="white"/>
<path fill-rule="evenodd" clip-rule="evenodd" d="M94.1433 192.241L93.1644 192.634L74.7806 200.002C75.3498 199.721 75.8616 199.327 76.2831 198.841L171.452 100.788C172.598 99.3757 173.319 97.6668 173.533 95.8602C173.746 94.0537 173.443 92.2236 172.658 90.5827C171.872 88.9418 170.638 87.5573 169.097 86.5902C167.556 85.6231 165.773 85.113 163.953 85.1192H96.6626C95.1076 85.1243 93.5747 84.7521 92.1952 84.0345C90.8157 83.317 89.6309 82.2755 88.7423 80.9994C87.8539 79.7233 87.2881 78.2507 87.0937 76.7079C86.8993 75.1652 87.0821 73.5983 87.6264 72.1417L106.083 14.2716C106.173 13.9462 106.227 13.6143 106.247 13.2815C106.291 12.5392 106.162 11.792 105.865 11.1003C105.435 10.0986 104.677 9.2728 103.716 8.75859C102.755 8.24437 101.647 8.07227 100.575 8.27053C100.339 8.31418 100.108 8.37524 99.8829 8.4527L118.77 0.893507C119.099 0.751624 119.444 0.646083 119.801 0.580147C120.873 0.381891 121.98 0.55399 122.942 1.06821C123.903 1.58242 124.661 2.40818 125.091 3.40997C125.522 4.41175 125.598 5.53001 125.309 6.58122L106.852 64.4513C106.308 65.9079 106.125 67.4748 106.32 69.0176C106.514 70.5603 107.08 72.0329 107.968 73.309C108.857 74.5851 110.042 75.6266 111.421 76.3441C112.801 77.0617 114.334 77.4339 115.889 77.4289H183.18C184.999 77.4227 186.782 77.9328 188.323 78.8999C189.864 79.867 191.098 81.2514 191.884 82.8923C192.669 84.5332 192.972 86.3633 192.759 88.1698C192.545 89.9764 191.824 91.6853 190.678 93.098L95.509 191.15C95.1214 191.598 94.658 191.966 94.1433 192.241Z" fill="#F2F2F2"/>
<path d="M76.2831 198.841C75.8616 199.327 75.3498 199.721 74.7806 200.002L74.0855 200.281C73.9021 200.338 73.7148 200.385 73.5243 200.42C72.4523 200.618 71.3447 200.446 70.3833 199.932C69.4219 199.418 68.664 198.592 68.2338 197.59C67.8036 196.588 67.7268 195.47 68.0159 194.419L86.4728 136.549C87.017 135.092 87.1998 133.525 87.0055 131.982C86.8111 130.44 86.2454 128.967 85.3568 127.691C84.4683 126.415 83.2835 125.373 81.904 124.656C80.5245 123.938 78.9916 123.566 77.4366 123.571H10.1458C8.32665 123.577 6.54314 123.067 5.00238 122.1C3.46163 121.133 2.22692 119.749 1.44169 118.108C0.656454 116.467 0.352951 114.637 0.566426 112.83C0.779902 111.024 1.50158 109.315 2.64763 107.902L97.8162 9.84963C98.3728 9.20707 99.087 8.72698 99.8829 8.4527C100.108 8.37524 100.339 8.31418 100.575 8.27053C101.647 8.07227 102.755 8.24437 103.716 8.75859C104.677 9.2728 105.435 10.0986 105.865 11.1003C106.162 11.792 106.291 12.5392 106.247 13.2815C106.227 13.6143 106.173 13.9462 106.083 14.2716L87.6264 72.1417C87.0821 73.5983 86.8993 75.1652 87.0937 76.7079C87.2881 78.2507 87.8539 79.7233 88.7423 80.9994C89.6309 82.2755 90.8157 83.317 92.1952 84.0345C93.5747 84.7521 95.1076 85.1243 96.6626 85.1192H163.953C165.773 85.113 167.556 85.6231 169.097 86.5902C170.638 87.5573 171.872 88.9418 172.658 90.5827C173.443 92.2236 173.746 94.0537 173.533 95.8602C173.319 97.6668 172.598 99.3757 171.452 100.788L76.2831 198.841Z" fill="white"/>
<path d="M93.1644 192.634L92.9784 192.17H92.9784L93.1644 192.634ZM98.5547 8.55362C98.3074 8.67638 98.2064 8.97641 98.3291 9.22377C98.4519 9.47113 98.7519 9.57213 98.9993 9.44938L98.777 9.0015L98.5547 8.55362ZM76.2831 198.841L75.9243 198.493C75.9177 198.499 75.9113 198.506 75.9052 198.513L76.2831 198.841ZM171.452 100.788L171.81 101.137C171.821 101.126 171.831 101.115 171.84 101.103L171.452 100.788ZM172.658 90.5827L172.206 90.7985V90.7985L172.658 90.5827ZM169.097 86.5902L169.363 86.1668L169.363 86.1668L169.097 86.5902ZM163.953 85.1192V85.6192H163.955L163.953 85.1192ZM96.6626 85.1192V84.6192H96.661L96.6626 85.1192ZM88.7423 80.9994L88.332 81.2851L88.332 81.2851L88.7423 80.9994ZM87.0937 76.7079L87.5898 76.6455V76.6454L87.0937 76.7079ZM87.6264 72.1417L88.0948 72.3167C88.0976 72.3091 88.1003 72.3014 88.1028 72.2937L87.6264 72.1417ZM106.083 14.2716L106.56 14.4235C106.562 14.4171 106.564 14.4106 106.565 14.4041L106.083 14.2716ZM106.247 13.2815L105.748 13.2519V13.2519L106.247 13.2815ZM105.865 11.1003L105.406 11.2976L105.406 11.2976L105.865 11.1003ZM103.716 8.75859L103.952 8.31771L103.952 8.3177L103.716 8.75859ZM100.575 8.27053L100.666 8.7622L100.666 8.76219L100.575 8.27053ZM118.77 0.893507L118.956 1.35788L118.968 1.35256L118.77 0.893507ZM119.801 0.580147L119.71 0.0884829L119.71 0.0884833L119.801 0.580147ZM122.942 1.06821L123.178 0.627325L123.178 0.627317L122.942 1.06821ZM125.309 6.58122L125.786 6.73315C125.788 6.72674 125.79 6.7203 125.791 6.71382L125.309 6.58122ZM106.852 64.4513L107.321 64.6264C107.324 64.6187 107.326 64.611 107.329 64.6033L106.852 64.4513ZM106.32 69.0176L106.816 68.9551V68.955L106.32 69.0176ZM107.968 73.309L107.558 73.5947L107.558 73.5947L107.968 73.309ZM115.889 77.4289V76.9289H115.887L115.889 77.4289ZM183.18 77.4289V77.9289H183.181L183.18 77.4289ZM188.323 78.8999L188.057 79.3234V79.3234L188.323 78.8999ZM190.678 93.098L191.036 93.4463C191.047 93.4356 191.057 93.4245 191.066 93.413L190.678 93.098ZM95.509 191.15L95.1503 190.802C95.1437 190.809 95.1373 190.816 95.1312 190.823L95.509 191.15ZM73.5243 200.42L73.6152 200.912H73.6153L73.5243 200.42ZM70.3833 199.932L70.6191 199.491V199.491L70.3833 199.932ZM68.0159 194.419L67.5396 194.267C67.5375 194.273 67.5356 194.28 67.5338 194.286L68.0159 194.419ZM86.4728 136.549L86.0045 136.374C86.0016 136.381 85.999 136.389 85.9965 136.397L86.4728 136.549ZM87.0055 131.982L87.5016 131.92V131.92L87.0055 131.982ZM85.3568 127.691L84.9465 127.977V127.977L85.3568 127.691ZM77.4366 123.571V124.071H77.4383L77.4366 123.571ZM10.1458 123.571V123.071H10.144L10.1458 123.571ZM1.44169 118.108L1.89271 117.892H1.89271L1.44169 118.108ZM0.566426 112.83L0.0698811 112.771H0.069881L0.566426 112.83ZM2.64763 107.902L2.28884 107.554C2.27851 107.564 2.26867 107.575 2.25933 107.587L2.64763 107.902ZM97.8162 9.84963L98.1749 10.1979C98.1815 10.1911 98.1879 10.1842 98.1941 10.177L97.8162 9.84963ZM93.1644 192.634L93.2984 193.116C93.6748 193.011 94.0371 192.865 94.3791 192.682L94.1433 192.241L93.9075 191.801C93.63 191.949 93.3359 192.067 93.0304 192.152L93.1644 192.634ZM94.1433 192.241L93.9573 191.777L92.9784 192.17L93.1644 192.634L93.3504 193.098L94.3293 192.706L94.1433 192.241ZM74.7806 200.002L74.559 199.554C74.3587 199.653 74.1505 199.736 73.9362 199.804L74.0855 200.281L74.2348 200.758C74.4989 200.675 74.7554 200.572 75.0022 200.45L74.7806 200.002ZM74.0855 200.281L74.2715 200.745L74.9666 200.466L74.7806 200.002L74.5946 199.538L73.8995 199.817L74.0855 200.281ZM99.8829 8.4527L99.6606 8.00482L98.5547 8.55362L98.777 9.0015L98.9993 9.44938L100.105 8.90058L99.8829 8.4527ZM93.1644 192.634L92.9784 192.17L74.5946 199.538L74.7806 200.002L74.9666 200.466L93.3504 193.098L93.1644 192.634ZM74.7806 200.002L75.0022 200.45C75.6306 200.14 76.1956 199.705 76.661 199.168L76.2831 198.841L75.9052 198.513C75.5275 198.949 75.069 199.302 74.559 199.554L74.7806 200.002ZM171.452 100.788L171.84 101.103C173.046 99.6172 173.805 97.8194 174.029 95.9189L173.533 95.8602L173.036 95.8016C172.834 97.5141 172.15 99.1341 171.063 100.473L171.452 100.788ZM173.533 95.8602L174.029 95.9189C174.254 94.0184 173.935 92.0931 173.109 90.3669L172.658 90.5827L172.206 90.7985C172.951 92.3541 173.239 94.089 173.036 95.8016L173.533 95.8602ZM172.658 90.5827L173.109 90.3669C172.283 88.6406 170.984 87.1842 169.363 86.1668L169.097 86.5902L168.831 87.0137C170.292 87.9305 171.462 89.243 172.206 90.7985L172.658 90.5827ZM169.097 86.5902L169.363 86.1668C167.742 85.1493 165.866 84.6127 163.952 84.6192L163.953 85.1192L163.955 85.6192C165.68 85.6133 167.37 86.0969 168.831 87.0137L169.097 86.5902ZM163.953 85.1192V84.6192H96.6626V85.1192V85.6192H163.953V85.1192ZM96.6626 85.1192L96.661 84.6192C95.1869 84.624 93.7337 84.2712 92.4259 83.591L92.1952 84.0345L91.9645 84.4781C93.4157 85.233 95.0284 85.6245 96.6642 85.6192L96.6626 85.1192ZM92.1952 84.0345L92.4259 83.591C91.1182 82.9107 89.995 81.9234 89.1526 80.7137L88.7423 80.9994L88.332 81.2851C89.2667 82.6275 90.5132 83.7232 91.9645 84.4781L92.1952 84.0345ZM88.7423 80.9994L89.1526 80.7137C88.3104 79.5039 87.774 78.108 87.5898 76.6455L87.0937 76.7079L86.5977 76.7704C86.8021 78.3935 87.3973 79.9426 88.332 81.2851L88.7423 80.9994ZM87.0937 76.7079L87.5898 76.6454C87.4055 75.1829 87.5788 73.6976 88.0948 72.3167L87.6264 72.1417L87.158 71.9667C86.5854 73.4991 86.3931 75.1475 86.5977 76.7705L87.0937 76.7079ZM87.6264 72.1417L88.1028 72.2937L106.56 14.4235L106.083 14.2716L105.607 14.1197L87.15 71.9898L87.6264 72.1417ZM106.083 14.2716L106.565 14.4041C106.664 14.045 106.724 13.6786 106.746 13.311L106.247 13.2815L105.748 13.2519C105.73 13.55 105.681 13.8473 105.601 14.1391L106.083 14.2716ZM106.247 13.2815L106.746 13.3111C106.795 12.4916 106.653 11.6667 106.325 10.9031L105.865 11.1003L105.406 11.2976C105.672 11.9174 105.787 12.5868 105.748 13.2519L106.247 13.2815ZM105.865 11.1003L106.325 10.9031C105.85 9.79706 105.013 8.8854 103.952 8.31771L103.716 8.75859L103.48 9.19948C104.341 9.66021 105.021 10.4001 105.406 11.2976L105.865 11.1003ZM103.716 8.75859L103.952 8.3177C102.89 7.74999 101.668 7.55999 100.484 7.77887L100.575 8.27053L100.666 8.76219C101.626 8.58456 102.619 8.73876 103.48 9.19949L103.716 8.75859ZM100.575 8.27053L100.484 7.77886C100.223 7.82706 99.968 7.89447 99.7199 7.97999L99.8829 8.4527L100.046 8.92541C100.247 8.856 100.454 8.8013 100.666 8.7622L100.575 8.27053ZM99.8829 8.4527L100.069 8.9169L118.956 1.35771L118.77 0.893507L118.584 0.429305L99.6971 7.98849L99.8829 8.4527ZM118.77 0.893507L118.968 1.35256C119.263 1.22545 119.572 1.13089 119.892 1.07181L119.801 0.580147L119.71 0.0884833C119.316 0.161272 118.935 0.277795 118.572 0.434456L118.77 0.893507ZM119.801 0.580147L119.892 1.07181C120.852 0.894178 121.845 1.04837 122.706 1.50911L122.942 1.06821L123.178 0.627317C122.116 0.0596076 120.894 -0.130397 119.71 0.0884829L119.801 0.580147ZM122.942 1.06821L122.706 1.5091C123.567 1.96983 124.247 2.7097 124.632 3.60724L125.091 3.40997L125.551 3.21269C125.076 2.10667 124.239 1.19502 123.178 0.627325L122.942 1.06821ZM125.091 3.40997L124.632 3.60724C125.017 4.50484 125.086 5.50678 124.827 6.44861L125.309 6.58122L125.791 6.71382C126.111 5.55324 126.026 4.31866 125.551 3.21269L125.091 3.40997ZM125.309 6.58122L124.833 6.42929L106.376 64.2994L106.852 64.4513L107.329 64.6033L125.786 6.73315L125.309 6.58122ZM106.852 64.4513L106.384 64.2763C105.811 65.8087 105.619 67.4571 105.824 69.0801L106.32 69.0176L106.816 68.955C106.631 67.4925 106.805 66.0072 107.321 64.6264L106.852 64.4513ZM106.32 69.0176L105.824 69.08C106.028 70.7031 106.623 72.2522 107.558 73.5947L107.968 73.309L108.379 73.0233C107.536 71.8136 107 70.4176 106.816 68.9551L106.32 69.0176ZM107.968 73.309L107.558 73.5947C108.493 74.9372 109.739 76.0328 111.19 76.7877L111.421 76.3441L111.652 75.9006C110.344 75.2203 109.221 74.233 108.379 73.0233L107.968 73.309ZM111.421 76.3441L111.19 76.7877C112.642 77.5426 114.254 77.9342 115.89 77.9289L115.889 77.4289L115.887 76.9289C114.413 76.9337 112.96 76.5808 111.652 75.9006L111.421 76.3441ZM115.889 77.4289V77.9289H183.18V77.4289V76.9289H115.889V77.4289ZM183.18 77.4289L183.181 77.9289C184.906 77.923 186.596 78.4065 188.057 79.3234L188.323 78.8999L188.589 78.4764C186.968 77.459 185.092 76.9223 183.178 76.9289L183.18 77.4289ZM188.323 78.8999L188.057 79.3234C189.518 80.2402 190.688 81.5526 191.433 83.1081L191.884 82.8923L192.335 82.6765C191.509 80.9502 190.209 79.4938 188.589 78.4764L188.323 78.8999ZM191.884 82.8923L191.433 83.1081C192.177 84.6637 192.465 86.3986 192.262 88.1112L192.759 88.1698L193.255 88.2285C193.48 86.328 193.161 84.4028 192.335 82.6765L191.884 82.8923ZM192.759 88.1698L192.262 88.1112C192.06 89.8238 191.376 91.4438 190.289 92.783L190.678 93.098L191.066 93.413C192.272 91.9268 193.031 90.1291 193.255 88.2285L192.759 88.1698ZM190.678 93.098L190.319 92.7498L95.1503 190.802L95.509 191.15L95.8678 191.499L191.036 93.4463L190.678 93.098ZM95.509 191.15L95.1312 190.823C94.7838 191.224 94.3686 191.554 93.9075 191.801L94.1433 192.241L94.3791 192.682C94.9473 192.378 95.4591 191.972 95.8869 191.478L95.509 191.15ZM74.0855 200.281L73.9362 199.804C73.7719 199.855 73.6041 199.897 73.4334 199.928L73.5243 200.42L73.6153 200.912C73.8255 200.873 74.0324 200.821 74.2348 200.758L74.0855 200.281ZM73.5243 200.42L73.4334 199.928C72.4728 200.106 71.4805 199.952 70.6191 199.491L70.3833 199.932L70.1475 200.373C71.2088 200.94 72.4317 201.13 73.6152 200.912L73.5243 200.42ZM70.3833 199.932L70.6191 199.491C69.7578 199.03 69.0786 198.29 68.6932 197.393L68.2338 197.59L67.7743 197.787C68.2493 198.893 69.0861 199.805 70.1475 200.373L70.3833 199.932ZM68.2338 197.59L68.6932 197.393C68.3078 196.495 68.239 195.493 68.498 194.551L68.0159 194.419L67.5338 194.286C67.2146 195.447 67.2994 196.681 67.7743 197.787L68.2338 197.59ZM68.0159 194.419L68.4923 194.571L86.9492 136.701L86.4728 136.549L85.9965 136.397L67.5396 194.267L68.0159 194.419ZM86.4728 136.549L86.9412 136.724C87.5137 135.191 87.706 133.543 87.5016 131.92L87.0055 131.982L86.5094 132.045C86.6936 133.507 86.5204 134.993 86.0045 136.374L86.4728 136.549ZM87.0055 131.982L87.5016 131.92C87.2971 130.297 86.7019 128.748 85.7672 127.405L85.3568 127.691L84.9465 127.977C85.7888 129.186 86.3251 130.582 86.5094 132.045L87.0055 131.982ZM85.3568 127.691L85.7672 127.405C84.8324 126.063 83.586 124.967 82.1347 124.212L81.904 124.656L81.6733 125.099C82.981 125.78 84.1042 126.767 84.9465 127.977L85.3568 127.691ZM81.904 124.656L82.1347 124.212C80.6835 123.457 79.0708 123.066 77.435 123.071L77.4366 123.571L77.4383 124.071C78.9123 124.066 80.3655 124.419 81.6733 125.099L81.904 124.656ZM77.4366 123.571V123.071H10.1458V123.571V124.071H77.4366V123.571ZM10.1458 123.571L10.144 123.071C8.41957 123.077 6.72882 122.593 5.2682 121.677L5.00238 122.1L4.73656 122.524C6.35745 123.541 8.23374 124.078 10.1475 124.071L10.1458 123.571ZM5.00238 122.1L5.2682 121.677C3.80759 120.76 2.6371 119.447 1.89271 117.892L1.44169 118.108L0.990665 118.324C1.81674 120.05 3.11568 121.506 4.73656 122.524L5.00238 122.1ZM1.44169 118.108L1.89271 117.892C1.14832 116.336 0.860599 114.601 1.06297 112.889L0.566426 112.83L0.069881 112.771C-0.154698 114.672 0.164591 116.597 0.990667 118.324L1.44169 118.108ZM0.566426 112.83L1.06297 112.889C1.26534 111.176 1.94949 109.556 3.03592 108.217L2.64763 107.902L2.25933 107.587C1.05367 109.073 0.29446 110.871 0.0698811 112.771L0.566426 112.83ZM2.64763 107.902L3.00642 108.25L98.1749 10.1979L97.8162 9.84963L97.4574 9.50139L2.28884 107.554L2.64763 107.902ZM97.8162 9.84963L98.1941 10.177C98.6928 9.60132 99.3327 9.17117 100.046 8.92541L99.8829 8.4527L99.7199 7.97998C98.8413 8.28279 98.0529 8.81282 97.4383 9.52223L97.8162 9.84963ZM76.2831 198.841L76.6419 199.189L171.81 101.137L171.452 100.788L171.093 100.44L75.9243 198.493L76.2831 198.841Z" fill="black" fill-opacity="0.5"/>
</svg>
