<svg width="300" height="240" viewBox="0 0 300 240" fill="none" xmlns="http://www.w3.org/2000/svg">
  <rect x="40" y="30" width="120" height="80" rx="2" stroke="#000" stroke-width="1.5" fill="none" opacity="0.5"/>
  <rect x="48" y="42" width="80" height="8" rx="1" fill="#000" opacity="0.2"/>
  <rect x="48" y="56" width="60" height="8" rx="1" fill="#000" opacity="0.15"/>
  <rect x="48" y="70" width="40" height="6" rx="1" fill="#000" opacity="0.1"/>
  <rect x="48" y="82" width="50" height="12" rx="1" fill="#000" opacity="0.3"/>
  <rect x="100" y="80" width="140" height="110" rx="2" stroke="#000" stroke-width="1.5" fill="none" opacity="0.5"/>
  <rect x="110" y="92" width="100" height="10" rx="1" fill="#000" opacity="0.2"/>
  <rect x="110" y="110" width="80" height="8" rx="1" fill="#000" opacity="0.15"/>
  <rect x="110" y="126" width="60" height="8" rx="1" fill="#000" opacity="0.15"/>
  <rect x="110" y="142" width="110" height="12" rx="1" fill="#000" opacity="0.1"/>
  <rect x="110" y="160" width="50" height="16" rx="1" fill="#000" opacity="0.3"/>
  <rect x="170" y="160" width="50" height="16" rx="1" stroke="#000" stroke-width="1" fill="none" opacity="0.3"/>
</svg>
